<?xml version="1.0" encoding="utf-8"?>
<!-- Generator: Adobe Illustrator 22.0.0, SVG Export Plug-In . SVG Version: 6.00 Build 0)  -->
<svg version="1.1" id="形状_3_1_" xmlns="http://www.w3.org/2000/svg" xmlns:xlink="http://www.w3.org/1999/xlink" x="0px"
	 y="0px" viewBox="0 0 395 395" style="enable-background:new 0 0 395 395;" xml:space="preserve">
<style type="text/css">
	.st0{fill-rule:evenodd;clip-rule:evenodd;}
</style>
<g id="形状_3">
	<g>
		<path class="st0" d="M80.8,310.8l91.1-158l-13.2-23.5L42.2,332h233.7l-12.8-21.2H80.8z M156,270.2c0,0,8.7,0.1,9.7-6.9
			s0.8-9.1,0.7-9.7c-0.1-0.6-3.6-9.9-11.1-10.4c-7.5-0.5-12.9-0.7-17.3,5.5c-4.9,6.9-4.8,10.4-4.8,10.4s-0.6,6.9,0,11.8
			c0.6,4.9,13.8,16.6,13.8,16.6l0.7-0.7c0,0-6.1-8-1.4-16.6H156z M256.3,250.8c-8.4,23.2-47.7,19.4-47.7,19.4
			c3.3-5.3,2.8-11.1,2.8-11.1v-78.2c1-2.8,6.2-6.9,6.2-6.9h-38.7c0,0,2.3,1.6,4.2,3.5c1.6,1.6,2.8,3.5,2.8,3.5v88.6
			c0,0-2.8,8.3-7.6,13.1c-6.4,6.4-15.9,10.4-15.9,10.4c35.6,1.5,40.8-11.8,40.8-11.8h73.3v-10.4
			C257.6,270.6,256.3,250.8,256.3,250.8z M197.5,63.2l-25.1,42.4l13.8,22.4l11.1-18.7l117.3,202h-22l11.3,20.8h49.4L197.5,63.2z"/>
	</g>
</g>
</svg>
